<svg xmlns="http://www.w3.org/2000/svg" width="512" height="512"><svg xmlns="http://www.w3.org/2000/svg" width="512" height="512" fill="none" viewBox="0 0 512 512"><rect width="416.08" height="416.08" x="1.2" y="108.89" fill="#8C8CED" rx="90" transform="rotate(-15 1.2 108.9)"/><path fill="#DEF1FF" d="m194.78 315.72-40.26-150.27a37.7 37.7 0 0 0-72.83 19.51l59.65 222.63a39 39 0 0 0 47.76 27.57l215.91-57.85a37.46 37.46 0 0 0-19.39-72.35l-143.08 38.33a39 39 0 0 1-47.76-27.57Z"/><path fill="#DEF1FF" d="m324.01 81-105.69 28.32a39 39 0 0 0-27.57 47.77l30.16 112.57a39 39 0 0 0 47.77 27.58l107.7-28.86a36.91 36.91 0 1 0-19.1-71.32l-55.9 14.98a19.4 19.4 0 0 1-10.04-37.48l53.87-14.44a39 39 0 0 0 27.58-47.76l-1.01-3.78A39 39 0 0 0 324 81Z"/></svg><style>@media (prefers-color-scheme:light){:root{filter:none}}</style></svg>