<svg xmlns="http://www.w3.org/2000/svg" width="1000" height="1000"><svg xmlns="http://www.w3.org/2000/svg" xmlns:svgjs="http://svgjs.com/svgjs" xmlns:xlink="http://www.w3.org/1999/xlink" width="512" height="512" transform="matrix(1.95313 0 0 1.95313 .2 -.4)"><svg xmlns="http://www.w3.org/2000/svg" width="512" height="512" fill="none" viewBox="0 0 512 512"><path fill="url(#a)" stroke="#8C8CED" stroke-width="9.4" d="M225.3 27 66 122.3a54.7 54.7 0 0 0-26.6 47v181.6c0 19.8 10.7 38 28 47.7l157.4 88a54.7 54.7 0 0 0 53.2.1l166.3-92.2a54.6 54.6 0 0 0 28.2-48.4l-2.2-177.1a54.7 54.7 0 0 0-26.9-46.5L281.1 27a54.6 54.6 0 0 0-55.8.2Z"/><path fill="#8C8CED" d="M254.2 35.3c-6.5 0-13 1.4-18 4.3l-161 92.9c-10 5.8-10 15 0 20.8l161 93c10 5.7 26 5.7 36 0l161-93c10-5.8 10-15 0-20.8l-161-92.9c-5-2.9-11.5-4.3-18-4.3ZM130.7 122a47 47 0 0 1 22.3 5.8c6.3 3.7 9.8 8.8 9.8 14.1 0 5.3-3.5 10.4-9.8 14.1a47.7 47.7 0 0 1-23.8 5.8c-9 0-17.5-2-23.8-5.8-4.8-2.8-8-6.5-9.3-10.4-1.2-4-.4-8 2.3-11.7 2.7-3.7 7.3-6.8 13-9a52.5 52.5 0 0 1 19.3-3Zm124.5.3c6.6 0 13 1.2 18.5 3.4 5.4 2.2 9.7 5.4 12.2 9 2.5 3.6 3 7.6 1.8 11.4a20 20 0 0 1-9.2 10.2 40 40 0 0 1-11 4.4 54.3 54.3 0 0 1-25.8 0c-4.1-1-7.9-2.4-11-4.3-3.2-1.9-5.7-4-7.4-6.5-1.6-2.4-2.5-5-2.5-7.7 0-2.6 1-5.2 2.7-7.6 1.7-2.5 4.2-4.7 7.4-6.5 3.2-1.9 7-3.4 11.1-4.4 4.2-1 8.7-1.5 13.2-1.5Zm126 0a47 47 0 0 1 22.3 5.8c6.3 3.7 9.8 8.8 9.8 14 0 5.3-3.6 10.4-9.9 14.1a47.7 47.7 0 0 1-23.7 5.8c-8.9 0-17.4-2-23.8-5.7-4.8-2.9-8-6.5-9.2-10.5-1.3-3.9-.5-8 2.2-11.7 2.8-3.6 7.3-6.7 13-8.8a52.5 52.5 0 0 1 19.3-3ZM64.5 170.9c-6-.1-10.1 4.6-10.1 13v165.7c0 11.6 8 25.4 18 31.2L227.2 470c10 5.8 18 1.2 18-10.4V293.8c0-11.6-8-25.4-18-31.2L72.4 173.4a17 17 0 0 0-7.9-2.5Zm380 0c-2.4.1-5 1-7.9 2.5L282 262.6c-10.1 5.8-18 19.6-18 31.2v165.8c0 11.6 7.9 16.2 18 10.4l154.7-89.2c10.1-5.8 18-19.6 18-31.2V183.8c0-8.3-4-13-10.1-12.9Zm-247.7 91c3.7-.2 7.7 1 12 3.3 4 2.4 8.2 6 11.8 10.4 3.6 4.4 6.6 9.4 8.7 14.6a41 41 0 0 1 3.2 15 21 21 0 0 1-1.8 9 12 12 0 0 1-5.2 5.7 13 13 0 0 1-7.7 1.2 24 24 0 0 1-9-3.2 41.9 41.9 0 0 1-9.1-7.2 55.2 55.2 0 0 1-12.8-21.7 38.1 38.1 0 0 1-1.8-11c0-4.7 1-8.6 3.1-11.4 2-2.8 5-4.4 8.6-4.6Zm174.4 30.2c3.6.2 6.5 1.8 8.6 4.7 2 2.8 3.2 6.7 3.1 11.3 0 7-2.5 15-7 22.5a49 49 0 0 1-16.7 17.4c-6.2 3.6-12.3 4.3-16.7 2-4.4-2.4-7-7.7-7-14.6 0-4.6 1.1-9.8 3.2-15 2.1-5.2 5.1-10.3 8.7-14.7 3.6-4.4 7.7-8 11.9-10.3 4.2-2.4 8.3-3.6 11.9-3.3ZM78.9 323c3.6-.3 7.7.9 11.9 3.2 4.1 2.4 8.2 6 11.8 10.4 3.7 4.4 6.7 9.5 8.7 14.7a41 41 0 0 1 3.2 15 21 21 0 0 1-1.8 9 12 12 0 0 1-5.1 5.6 13 13 0 0 1-7.7 1.2 24 24 0 0 1-9-3.2 41.9 41.9 0 0 1-9.2-7.2A55.2 55.2 0 0 1 69 350a38.1 38.1 0 0 1-1.8-11.1c0-4.7 1-8.6 3.2-11.4 2-2.8 5-4.4 8.6-4.6Z"/><mask id="b" width="401" height="438" x="54" y="35" maskUnits="userSpaceOnUse" style="mask-type:alpha"><path fill="#000" d="M254.2 35.3c-6.5 0-13 1.4-18 4.3l-161 92.9c-10 5.8-10 15 0 20.8l161 93c10 5.7 26 5.7 36 0l161-93c10-5.8 10-15 0-20.8l-161-92.9c-5-2.9-11.5-4.3-18-4.3ZM130.7 122a47 47 0 0 1 22.3 5.8c6.3 3.7 9.8 8.8 9.8 14.1 0 5.3-3.5 10.4-9.8 14.1a47.7 47.7 0 0 1-23.8 5.8c-9 0-17.5-2-23.8-5.8-4.8-2.8-8-6.5-9.3-10.4-1.2-4-.4-8 2.3-11.7 2.7-3.7 7.3-6.8 13-9a52.5 52.5 0 0 1 19.3-3Zm124.5.3c6.6 0 13 1.2 18.5 3.4 5.4 2.2 9.7 5.4 12.2 9 2.5 3.6 3 7.6 1.8 11.4a20 20 0 0 1-9.2 10.2 40 40 0 0 1-11 4.4 54.3 54.3 0 0 1-25.8 0c-4.1-1-7.9-2.4-11-4.3-3.2-1.9-5.7-4-7.4-6.5-1.6-2.4-2.5-5-2.5-7.7 0-2.6 1-5.2 2.7-7.6 1.7-2.5 4.2-4.7 7.4-6.5 3.2-1.9 7-3.4 11.1-4.4 4.2-1 8.7-1.5 13.2-1.5Zm126 0a47 47 0 0 1 22.3 5.8c6.3 3.7 9.8 8.8 9.8 14 0 5.3-3.6 10.4-9.9 14.1a47.7 47.7 0 0 1-23.7 5.8c-8.9 0-17.4-2-23.8-5.7-4.8-2.9-8-6.5-9.2-10.5-1.3-3.9-.5-8 2.2-11.7 2.8-3.6 7.3-6.7 13-8.8a52.5 52.5 0 0 1 19.3-3ZM64.5 170.9c-6-.1-10.1 4.6-10.1 13v165.7c0 11.6 8 25.4 18 31.2L227.2 470c10 5.8 18 1.2 18-10.4V293.8c0-11.6-8-25.4-18-31.2L72.4 173.4a17 17 0 0 0-7.9-2.5Zm380 0c-2.4.1-5 1-7.9 2.5L282 262.6c-10.1 5.8-18 19.6-18 31.2v165.8c0 11.6 7.9 16.2 18 10.4l154.7-89.2c10.1-5.8 18-19.6 18-31.2V183.8c0-8.3-4-13-10.1-12.9Zm-247.7 91c3.7-.2 7.7 1 12 3.3 4 2.4 8.2 6 11.8 10.4 3.6 4.4 6.6 9.4 8.7 14.6a41 41 0 0 1 3.2 15 21 21 0 0 1-1.8 9 12 12 0 0 1-5.2 5.7 13 13 0 0 1-7.7 1.2 24 24 0 0 1-9-3.2 41.9 41.9 0 0 1-9.1-7.2 55.2 55.2 0 0 1-12.8-21.7 38.1 38.1 0 0 1-1.8-11c0-4.7 1-8.6 3.1-11.4 2-2.8 5-4.4 8.6-4.6Zm174.4 30.2c3.6.2 6.5 1.8 8.6 4.7 2 2.8 3.2 6.7 3.1 11.3 0 7-2.5 15-7 22.5a49 49 0 0 1-16.7 17.4c-6.2 3.6-12.3 4.3-16.7 2-4.4-2.4-7-7.7-7-14.6 0-4.6 1.1-9.8 3.2-15 2.1-5.2 5.1-10.3 8.7-14.7 3.6-4.4 7.7-8 11.9-10.3 4.2-2.4 8.3-3.6 11.9-3.3ZM78.9 323c3.6-.3 7.7.9 11.9 3.2 4.1 2.4 8.2 6 11.8 10.4 3.7 4.4 6.7 9.5 8.7 14.7a41 41 0 0 1 3.2 15 21 21 0 0 1-1.8 9 12 12 0 0 1-5.1 5.6 13 13 0 0 1-7.7 1.2 24 24 0 0 1-9-3.2 41.9 41.9 0 0 1-9.2-7.2A55.2 55.2 0 0 1 69 350a38.1 38.1 0 0 1-1.8-11.1c0-4.7 1-8.6 3.2-11.4 2-2.8 5-4.4 8.6-4.6Z"/></mask><g fill-opacity=".9" mask="url(#b)"><path fill="#FFD500" d="M454.8 342c0 8.5 0 14-3.3 21.2-2.4 5.1-7 14-17.9 19.3L294.2 463c-3.8 1-18 14.2-26 7.6-1.8-1.4-5.1-4.7-4.2-13.2v-78.2l190.8-106V342Z"/><path fill="#005BBB" d="m426.5 179.4-139.4 80.1a49 49 0 0 0-16.5 13.7c-4.2 7.5-8 17-6.6 26.8v79.2l190.8-106V193c0-9.4 1-19.8-7.5-21.7-5.7-1.9-12.7 2.8-20.8 8Z"/></g><mask id="c" width="401" height="438" x="54" y="35" maskUnits="userSpaceOnUse" style="mask-type:alpha"><path fill="#8C8CED" d="M254.2 35.3c-6.5 0-13 1.4-18 4.3l-161 92.9c-10 5.8-10 15 0 20.8l161 93c10 5.7 26 5.7 36 0l161-93c10-5.8 10-15 0-20.8l-161-92.9c-5-2.9-11.5-4.3-18-4.3ZM130.7 122a47 47 0 0 1 22.3 5.8c6.3 3.7 9.8 8.8 9.8 14.1 0 5.3-3.5 10.4-9.8 14.1a47.7 47.7 0 0 1-23.8 5.8c-9 0-17.5-2-23.8-5.8-4.8-2.8-8-6.5-9.3-10.4-1.2-4-.4-8 2.3-11.7 2.7-3.7 7.3-6.8 13-9a52.5 52.5 0 0 1 19.3-3Zm124.5.3c6.6 0 13 1.2 18.5 3.4 5.4 2.2 9.7 5.4 12.2 9 2.5 3.6 3 7.6 1.8 11.4a20 20 0 0 1-9.2 10.2 40 40 0 0 1-11 4.4 54.3 54.3 0 0 1-25.8 0c-4.1-1-7.9-2.4-11-4.3-3.2-1.9-5.7-4-7.4-6.5-1.6-2.4-2.5-5-2.5-7.7 0-2.6 1-5.2 2.7-7.6 1.7-2.5 4.2-4.7 7.4-6.5 3.2-1.9 7-3.4 11.1-4.4 4.2-1 8.7-1.5 13.2-1.5Zm126 0a47 47 0 0 1 22.3 5.8c6.3 3.7 9.8 8.8 9.8 14 0 5.3-3.6 10.4-9.9 14.1a47.7 47.7 0 0 1-23.7 5.8c-8.9 0-17.4-2-23.8-5.7-4.8-2.9-8-6.5-9.2-10.5-1.3-3.9-.5-8 2.2-11.7 2.8-3.6 7.3-6.7 13-8.8a52.5 52.5 0 0 1 19.3-3ZM64.5 170.9c-6-.1-10.1 4.6-10.1 13v165.7c0 11.6 8 25.4 18 31.2L227.2 470c10 5.8 18 1.2 18-10.4V293.8c0-11.6-8-25.4-18-31.2L72.4 173.4a17 17 0 0 0-7.9-2.5Zm380 0c-2.4.1-5 1-7.9 2.5L282 262.6c-10.1 5.8-18 19.6-18 31.2v165.8c0 11.6 7.9 16.2 18 10.4l154.7-89.2c10.1-5.8 18-19.6 18-31.2V183.8c0-8.3-4-13-10.1-12.9Zm-247.7 91c3.7-.2 7.7 1 12 3.3 4 2.4 8.2 6 11.8 10.4 3.6 4.4 6.6 9.4 8.7 14.6a41 41 0 0 1 3.2 15 21 21 0 0 1-1.8 9 12 12 0 0 1-5.2 5.7 13 13 0 0 1-7.7 1.2 24 24 0 0 1-9-3.2 41.9 41.9 0 0 1-9.1-7.2 55.2 55.2 0 0 1-12.8-21.7 38.1 38.1 0 0 1-1.8-11c0-4.7 1-8.6 3.1-11.4 2-2.8 5-4.4 8.6-4.6Zm174.4 30.2c3.6.2 6.5 1.8 8.6 4.7 2 2.8 3.2 6.7 3.1 11.3 0 7-2.5 15-7 22.5a49 49 0 0 1-16.7 17.4c-6.2 3.6-12.3 4.3-16.7 2-4.4-2.4-7-7.7-7-14.6 0-4.6 1.1-9.8 3.2-15 2.1-5.2 5.1-10.3 8.7-14.7 3.6-4.4 7.7-8 11.9-10.3 4.2-2.4 8.3-3.6 11.9-3.3ZM78.9 323c3.6-.3 7.7.9 11.9 3.2 4.1 2.4 8.2 6 11.8 10.4 3.7 4.4 6.7 9.5 8.7 14.7a41 41 0 0 1 3.2 15 21 21 0 0 1-1.8 9 12 12 0 0 1-5.1 5.6 13 13 0 0 1-7.7 1.2 24 24 0 0 1-9-3.2 41.9 41.9 0 0 1-9.2-7.2A55.2 55.2 0 0 1 69 350a38.1 38.1 0 0 1-1.8-11.1c0-4.7 1-8.6 3.2-11.4 2-2.8 5-4.4 8.6-4.6Z"/></mask><g mask="url(#c)"><path fill="#00247D" d="M51.5 190.7V223L82.3 241l-30.8-50.2ZM77.1 386l45.5 26.3v-48L77.1 386Zm100.3 9.8V444l45.5 26.3-45.5-74.4ZM51.5 305.5v32.4l30.8-14.6-30.8-17.8ZM223 256.2 177.4 230v48l45.6-21.7Zm25.5 195.4v-32.4l-30.8-17.8 30.8 50.2Zm0-114.8v-32.4L217.7 319l30.8 17.7ZM122.6 198.3 77.1 172l45.5 74.4v-48Z" opacity=".9"/><path fill="#CF1B2B" d="m189 384.9 53.2 86.7c2.6-2.6 4.4-6.4 5.4-11.3l-39.5-64.4-19-11Zm-66.4-38.4-11.7-6.7L58 365c2.8 6 6.4 11.3 10.5 15l54.2-25.8v-7.8Zm54.8-50.7 11.7 6.7 53-25.3a49.8 49.8 0 0 0-10.5-15L177.4 288v7.8Zm-66.5-38.4-53-86.6a21.3 21.3 0 0 0-5.5 11.2l39.5 64.4 19 11Z" opacity=".9"/><path fill="#EEE" d="m248.5 402.7-82-47.4v82.4l10.9 6.3v-48l45.5 74.3 3.7 2.1c2.9 1.7 5.8 2.5 8.4 2.3a11 11 0 0 0 7.2-3.1L189 384.9l19 11 39.5 64.4c.5-2.5.9-5.2.9-8.2v-.5l-30.8-50.2 30.8 17.8v-16.5ZM51.5 289v16.5l30.8 17.8-30.8 14.6v.5a64 64 0 0 0 6.3 26.7l53.1-25.3 11.7 6.7v7.8l-54.2 25.9a28 28 0 0 0 5 3.8l3.7 2.1 45.5-21.7v48l11 6.3v-82.3l-82-47.4Zm197 14.9a64 64 0 0 0-6.3-26.7L189 302.5l-11.7-6.7V288l54.2-25.8a28.4 28.4 0 0 0-5-3.9l-3.6-2-45.6 21.7v-48.1l-11-6.3v82.3l82 47.4v-16.5l-30.7-17.7 30.8-14.7v-.5ZM122.6 198.3v48L77.1 172l-3.7-2.1c-2.9-1.7-5.8-2.5-8.4-2.3a11 11 0 0 0-7.2 3.2l53.1 86.6-19-11L52.4 182c-.5 2.5-.8 5.3-.9 8.2v.5l30.8 50.2-30.8-17.8v16.5l82 47.4v-82.4l-10.9-6.3Z" opacity=".9"/><path fill="#CF1B2B" d="M166.4 306v-82.4l-32.8-19V287l-82-47.4V289l82 47.4v82.3l32.8 19v-82.4l82 47.4v-49.4l-82-47.4Z" opacity=".9"/></g><defs><linearGradient id="a" x1="256" x2="256" y1="15.9" y2="496" gradientUnits="userSpaceOnUse"><stop stop-color="#242424" stop-opacity=".8"/><stop offset=".2" stop-color="#242424"/></linearGradient></defs></svg></svg></svg>